<svg version="1.0" xmlns="http://www.w3.org/2000/svg"
 width="401.000000pt" height="385.000000pt" viewBox="0 0 401.000000 385.000000"
 preserveAspectRatio="xMidYMid meet">

<g transform="translate(50.000000,340.000000) scale(0.0700000,-0.070000)"
fill="#5B3E96" stroke="none">
<path d="M627 3694 c-18 -4 -32 -15 -40 -32 -15 -35 -21 -1353 -10 -2165 7
-469 11 -590 22 -596 15 -9 94 -16 351 -31 381 -23 635 -87 998 -254 l137 -63
7 166 c4 91 3 688 -2 1326 -6 638 -10 1176 -10 1196 0 36 -2 38 -129 118 -282
178 -545 275 -852 315 -120 16 -423 28 -472 20z"/>
<path d="M3315 3674 c-304 -32 -643 -155 -933 -338 l-122 -77 5 -407 c3 -224
10 -837 16 -1362 5 -525 11 -956 13 -957 1 -2 75 31 163 71 300 140 544 208
803 227 180 13 372 8 395 -11 38 -32 15 -38 -280 -80 -503 -70 -689 -129
-1060 -335 -76 -42 -107 -54 -128 -50 -15 2 -78 32 -139 66 -182 100 -362 185
-466 218 -228 72 -358 89 -777 101 -181 5 -346 12 -366 16 l-37 6 -6 702 c-4
385 -10 1016 -14 1401 l-7 700 -49 24 c-50 25 -128 38 -169 27 -51 -13 -63
-96 -77 -551 -12 -422 -12 -938 0 -1690 10 -587 17 -711 45 -765 36 -70 78
-77 725 -115 404 -24 659 -75 865 -174 92 -43 134 -72 266 -183 45 -38 46 -38
192 -54 l147 -16 67 62 c252 236 527 331 1068 370 194 14 299 28 345 46 l37
15 7 157 c21 533 13 2919 -10 2942 -11 11 -438 22 -519 14z"/>
</g>
</svg>