<svg version="1.0" xmlns="http://www.w3.org/2000/svg"
 width="994.000000pt" height="250.000000pt" viewBox="0 0 994.000000 250.000000"
 preserveAspectRatio="xMidYMid meet">

<g transform="translate(50.000000,250.000000) scale(0.0800000,-0.090000)"
fill="#ffffff" stroke="none">
<path d="M418 2374 c-12 -4 -18 -22 -23 -67 -9 -89 -2 -1714 8 -1723 4 -5 80
-12 168 -16 187 -8 281 -20 405 -54 90 -24 243 -83 336 -130 26 -13 50 -24 53
-24 7 0 6 1021 -2 1417 l-6 330 -76 50 c-210 140 -436 209 -706 218 -77 2
-148 2 -157 -1z"/>
<path d="M2133 2360 c-200 -26 -408 -102 -577 -213 l-79 -51 7 -876 c5 -481 9
-876 10 -877 1 -1 51 23 111 53 119 59 250 103 385 130 107 22 362 26 382 6
20 -20 -3 -29 -116 -42 -348 -41 -514 -89 -713 -206 -51 -30 -100 -54 -109
-54 -10 0 -51 20 -93 44 -270 159 -445 205 -772 206 -75 0 -170 3 -211 6 l-76
7 -7 898 -7 898 -26 17 c-15 10 -47 19 -73 22 -79 7 -81 0 -92 -327 -11 -342
-1 -1487 13 -1556 19 -93 38 -99 380 -115 258 -12 346 -22 475 -55 148 -37
236 -79 310 -146 36 -32 69 -59 73 -59 4 0 47 -5 96 -10 l89 -9 71 65 c143
132 348 195 687 213 95 6 168 14 185 23 l29 13 8 145 c9 165 5 1835 -4 1844
-11 11 -282 15 -356 6z"/>
<path d="M9618 2069 c-47 -24 -68 -64 -68 -126 0 -50 14 -79 59 -120 34 -32
124 -32 172 0 93 62 88 178 -11 245 -41 28 -101 28 -152 1z"/>
<path d="M8588 1789 l-3 -281 -50 39 c-27 22 -72 53 -100 69 -50 29 -52 29
-210 29 l-160 0 -73 -39 c-112 -60 -196 -161 -243 -292 -16 -45 -23 -91 -26
-194 -6 -150 6 -220 54 -320 38 -79 150 -188 238 -231 67 -33 75 -34 203 -37
99 -3 144 0 177 11 53 19 118 62 166 112 l36 36 6 -59 c10 -97 4 -93 128 -91
l109 2 0 764 0 763 -125 0 -125 0 -2 -281z m-183 -383 c65 -31 117 -86 152
-161 24 -51 28 -73 28 -150 0 -131 -22 -196 -89 -261 -68 -66 -130 -88 -230
-82 -93 6 -166 38 -216 95 -56 64 -75 127 -74 248 0 87 4 108 28 160 56 124
136 174 276 174 59 1 86 -4 125 -23z"/>
<path d="M9098 2063 c-17 -4 -18 -49 -18 -764 l0 -759 125 0 125 0 0 765 0
765 -107 -1 c-60 -1 -116 -3 -125 -6z"/>
<path d="M3500 2016 c-183 -62 -292 -189 -306 -356 -12 -140 22 -233 119 -329
57 -57 132 -90 327 -145 252 -71 318 -108 339 -190 25 -99 -31 -198 -134 -241
-45 -19 -164 -21 -224 -5 -86 23 -168 106 -191 192 l-11 38 -130 0 -130 0 7
-47 c23 -162 115 -284 271 -359 39 -19 98 -39 130 -44 77 -13 222 -12 303 1
149 24 292 128 353 256 29 63 32 76 32 173 0 95 -3 111 -28 161 -67 138 -157
195 -432 274 -269 78 -335 122 -335 227 0 117 71 181 214 195 125 11 212 -37
260 -144 l19 -43 124 0 123 0 0 39 c0 50 -66 182 -116 234 -53 54 -160 115
-223 127 -30 5 -108 10 -175 9 -97 0 -134 -5 -186 -23z"/>
<path d="M6954 1650 c-169 -15 -320 -146 -341 -295 l-6 -45 119 0 119 1 30 51
c41 70 86 93 185 92 100 0 153 -27 181 -90 43 -96 10 -128 -169 -169 -293 -66
-351 -87 -420 -149 -55 -50 -85 -123 -86 -211 0 -38 5 -88 12 -111 18 -61 82
-128 160 -166 61 -30 73 -33 167 -33 128 0 216 26 300 89 l60 45 3 -59 3 -60
131 2 131 2 -7 331 c-9 400 -17 488 -50 560 -56 124 -164 198 -312 215 -95 11
-101 11 -210 0z m314 -663 c4 -82 -19 -138 -76 -188 -98 -86 -269 -103 -338
-34 -19 19 -24 34 -24 77 0 104 39 133 228 173 68 14 133 30 145 35 51 21 62
11 65 -63z"/>
<path d="M4684 1632 c-140 -49 -216 -137 -249 -289 l-7 -33 121 0 120 0 17 33
c42 83 90 110 199 111 116 1 173 -37 190 -126 15 -77 -14 -95 -245 -149 -263
-62 -323 -87 -380 -159 -42 -53 -60 -110 -60 -191 0 -75 26 -150 73 -204 62
-74 218 -116 353 -96 96 14 144 35 217 95 l57 46 0 -65 0 -65 125 0 125 0 0
328 c-1 387 -9 512 -38 568 -36 70 -105 137 -182 177 l-72 37 -157 0 c-122 -1
-167 -4 -207 -18z m398 -632 c-7 -131 -52 -210 -141 -249 -151 -65 -291 -19
-291 95 0 99 43 130 230 169 66 14 131 30 143 35 12 5 31 8 42 7 18 -2 20 -8
17 -57z"/>
<path d="M6232 1619 c-5 -13 -67 -196 -138 -407 -120 -357 -130 -381 -141
-355 -7 15 -67 192 -134 393 -67 201 -125 369 -129 373 -3 4 -63 6 -132 5
l-126 -3 99 -275 c54 -151 142 -395 195 -542 l97 -268 137 0 137 0 198 540
c109 298 196 542 194 544 -2 2 -59 7 -126 11 l-123 7 -8 -23z"/>
<path d="M9570 1084 l0 -557 53 7 c28 3 85 6 125 6 l72 0 0 550 0 550 -125 0
-125 0 0 -556z"/>
</g>
</svg>